<svg width="936" height="244" viewBox="0 0 936 244" fill="none" xmlns="http://www.w3.org/2000/svg">
<g clip-path="url(#clip0)">
<path d="M279.179 143.575V157.102H295.082V161.368H279.179V178H273.941V139.309H297.782V143.575H279.179ZM349.573 158.668C349.573 161.566 349.114 164.23 348.196 166.66C347.278 169.072 345.982 171.151 344.308 172.897C342.634 174.643 340.618 176.002 338.26 176.974C335.92 177.928 333.328 178.405 330.484 178.405C327.64 178.405 325.048 177.928 322.708 176.974C320.368 176.002 318.361 174.643 316.687 172.897C315.013 171.151 313.717 169.072 312.799 166.66C311.881 164.23 311.422 161.566 311.422 158.668C311.422 155.77 311.881 153.115 312.799 150.703C313.717 148.273 315.013 146.185 316.687 144.439C318.361 142.675 320.368 141.307 322.708 140.335C325.048 139.363 327.64 138.877 330.484 138.877C333.328 138.877 335.92 139.363 338.26 140.335C340.618 141.307 342.634 142.675 344.308 144.439C345.982 146.185 347.278 148.273 348.196 150.703C349.114 153.115 349.573 155.77 349.573 158.668ZM344.2 158.668C344.2 156.292 343.876 154.159 343.228 152.269C342.58 150.379 341.662 148.786 340.474 147.49C339.286 146.176 337.846 145.168 336.154 144.466C334.462 143.764 332.572 143.413 330.484 143.413C328.414 143.413 326.533 143.764 324.841 144.466C323.149 145.168 321.7 146.176 320.494 147.49C319.306 148.786 318.388 150.379 317.74 152.269C317.092 154.159 316.768 156.292 316.768 158.668C316.768 161.044 317.092 163.177 317.74 165.067C318.388 166.939 319.306 168.532 320.494 169.846C321.7 171.142 323.149 172.141 324.841 172.843C326.533 173.527 328.414 173.869 330.484 173.869C332.572 173.869 334.462 173.527 336.154 172.843C337.846 172.141 339.286 171.142 340.474 169.846C341.662 168.532 342.58 166.939 343.228 165.067C343.876 163.177 344.2 161.044 344.2 158.668ZM381.718 173.842C383.32 173.842 384.751 173.572 386.011 173.032C387.271 172.492 388.333 171.736 389.197 170.764C390.079 169.792 390.745 168.631 391.195 167.281C391.663 165.931 391.897 164.446 391.897 162.826V139.309H397.108V162.826C397.108 165.058 396.748 167.128 396.028 169.036C395.326 170.944 394.309 172.6 392.977 174.004C391.663 175.39 390.052 176.479 388.144 177.271C386.236 178.063 384.094 178.459 381.718 178.459C379.342 178.459 377.2 178.063 375.292 177.271C373.384 176.479 371.764 175.39 370.432 174.004C369.1 172.6 368.074 170.944 367.354 169.036C366.652 167.128 366.301 165.058 366.301 162.826V139.309H371.512V162.799C371.512 164.419 371.737 165.904 372.187 167.254C372.655 168.604 373.321 169.765 374.185 170.737C375.067 171.709 376.138 172.474 377.398 173.032C378.676 173.572 380.116 173.842 381.718 173.842ZM447.563 139.309V178H444.944C444.53 178 444.179 177.928 443.891 177.784C443.621 177.64 443.351 177.397 443.081 177.055L420.698 147.895C420.734 148.345 420.761 148.786 420.779 149.218C420.797 149.65 420.806 150.055 420.806 150.433V178H416.216V139.309H418.916C419.15 139.309 419.348 139.327 419.51 139.363C419.672 139.381 419.816 139.426 419.942 139.498C420.068 139.552 420.194 139.642 420.32 139.768C420.446 139.876 420.581 140.02 420.725 140.2L443.108 169.333C443.072 168.865 443.036 168.415 443 167.983C442.982 167.533 442.973 167.11 442.973 166.714V139.309H447.563ZM500.709 158.668C500.709 161.566 500.25 164.203 499.332 166.579C498.414 168.955 497.118 170.989 495.444 172.681C493.77 174.373 491.754 175.687 489.396 176.623C487.056 177.541 484.464 178 481.62 178H467.175V139.309H481.62C484.464 139.309 487.056 139.777 489.396 140.713C491.754 141.631 493.77 142.945 495.444 144.655C497.118 146.347 498.414 148.381 499.332 150.757C500.25 153.133 500.709 155.77 500.709 158.668ZM495.336 158.668C495.336 156.292 495.012 154.168 494.364 152.296C493.716 150.424 492.798 148.84 491.61 147.544C490.422 146.248 488.982 145.258 487.29 144.574C485.598 143.89 483.708 143.548 481.62 143.548H472.413V173.761H481.62C483.708 173.761 485.598 173.419 487.29 172.735C488.982 172.051 490.422 171.07 491.61 169.792C492.798 168.496 493.716 166.912 494.364 165.04C495.012 163.168 495.336 161.044 495.336 158.668ZM537.467 163.636L531.392 147.895C531.212 147.427 531.023 146.887 530.825 146.275C530.627 145.645 530.438 144.979 530.258 144.277C529.88 145.735 529.493 146.95 529.097 147.922L523.022 163.636H537.467ZM548.375 178H544.325C543.857 178 543.479 177.883 543.191 177.649C542.903 177.415 542.687 177.118 542.543 176.758L538.925 167.416H521.564L517.946 176.758C517.838 177.082 517.631 177.37 517.325 177.622C517.019 177.874 516.641 178 516.191 178H512.141L527.612 139.309H532.904L548.375 178ZM585.551 143.71H573.023V178H567.812V143.71H555.257V139.309H585.551V143.71ZM606.25 178H601.012V139.309H606.25V178ZM661.615 158.668C661.615 161.566 661.156 164.23 660.238 166.66C659.32 169.072 658.024 171.151 656.35 172.897C654.676 174.643 652.66 176.002 650.302 176.974C647.962 177.928 645.37 178.405 642.526 178.405C639.682 178.405 637.09 177.928 634.75 176.974C632.41 176.002 630.403 174.643 628.729 172.897C627.055 171.151 625.759 169.072 624.841 166.66C623.923 164.23 623.464 161.566 623.464 158.668C623.464 155.77 623.923 153.115 624.841 150.703C625.759 148.273 627.055 146.185 628.729 144.439C630.403 142.675 632.41 141.307 634.75 140.335C637.09 139.363 639.682 138.877 642.526 138.877C645.37 138.877 647.962 139.363 650.302 140.335C652.66 141.307 654.676 142.675 656.35 144.439C658.024 146.185 659.32 148.273 660.238 150.703C661.156 153.115 661.615 155.77 661.615 158.668ZM656.242 158.668C656.242 156.292 655.918 154.159 655.27 152.269C654.622 150.379 653.704 148.786 652.516 147.49C651.328 146.176 649.888 145.168 648.196 144.466C646.504 143.764 644.614 143.413 642.526 143.413C640.456 143.413 638.575 143.764 636.883 144.466C635.191 145.168 633.742 146.176 632.536 147.49C631.348 148.786 630.43 150.379 629.782 152.269C629.134 154.159 628.81 156.292 628.81 158.668C628.81 161.044 629.134 163.177 629.782 165.067C630.43 166.939 631.348 168.532 632.536 169.846C633.742 171.142 635.191 172.141 636.883 172.843C638.575 173.527 640.456 173.869 642.526 173.869C644.614 173.869 646.504 173.527 648.196 172.843C649.888 172.141 651.328 171.142 652.516 169.846C653.704 168.532 654.622 166.939 655.27 165.067C655.918 163.177 656.242 161.044 656.242 158.668ZM710.176 139.309V178H707.557C707.143 178 706.792 177.928 706.504 177.784C706.234 177.64 705.964 177.397 705.694 177.055L683.311 147.895C683.347 148.345 683.374 148.786 683.392 149.218C683.41 149.65 683.419 150.055 683.419 150.433V178H678.829V139.309H681.529C681.763 139.309 681.961 139.327 682.123 139.363C682.285 139.381 682.429 139.426 682.555 139.498C682.681 139.552 682.807 139.642 682.933 139.768C683.059 139.876 683.194 140.02 683.338 140.2L705.721 169.333C705.685 168.865 705.649 168.415 705.613 167.983C705.595 167.533 705.586 167.11 705.586 166.714V139.309H710.176Z" fill="#2D2D2D"/>
<path d="M312.6 89.3C312.6 92.4 312.1 95.2 311 97.9C310 100.5 308.5 102.8 306.6 104.7C304.7 106.6 302.4 108.1 299.8 109.2C297.2 110.3 294.2 110.8 291 110.8C287.8 110.8 284.8 110.3 282.2 109.2C279.6 108.1 277.3 106.6 275.4 104.7C273.5 102.8 272 100.5 271 97.9C270 95.3 269.4 92.4 269.4 89.3C269.4 86.2 269.9 83.4 271 80.8C272 78.2 273.5 75.9 275.4 74C277.3 72.1 279.6 70.6 282.2 69.5C284.8 68.4 287.8 67.9 291 67.9C294.2 67.9 297.2 68.4 299.8 69.5C302.4 70.6 304.7 72.1 306.6 74C308.5 75.9 309.9 78.2 311 80.8C312 83.4 312.6 86.3 312.6 89.3ZM303.7 89.3C303.7 87.1 303.4 85.1 302.8 83.4C302.2 81.7 301.4 80.2 300.3 78.9C299.2 77.7 297.9 76.7 296.3 76.1C294.7 75.5 293 75.1 291 75.1C289 75.1 287.3 75.4 285.7 76.1C284.1 76.7 282.8 77.7 281.7 78.9C280.6 80.1 279.8 81.6 279.2 83.4C278.6 85.2 278.3 87.1 278.3 89.3C278.3 91.5 278.6 93.5 279.2 95.3C279.8 97.1 280.6 98.5 281.7 99.8C282.8 101 284.1 102 285.7 102.6C287.3 103.2 289 103.6 291 103.6C293 103.6 294.7 103.3 296.3 102.6C297.9 102 299.2 101 300.3 99.8C301.4 98.6 302.2 97.1 302.8 95.3C303.4 93.5 303.7 91.5 303.7 89.3Z" fill="#2D2D2D"/>
<path d="M336.8 95.9V110.4H328.1V68.3H342.3C345.2 68.3 347.7 68.6 349.8 69.3C351.9 70 353.6 70.9 355 72.1C356.4 73.3 357.4 74.7 358 76.4C358.6 78.1 359 79.9 359 81.8C359 83.9 358.7 85.8 358 87.5C357.3 89.2 356.3 90.7 354.9 91.9C353.5 93.1 351.8 94.1 349.7 94.8C347.6 95.5 345.2 95.8 342.4 95.8H336.8V95.9ZM336.8 89.2H342.3C345 89.2 347 88.5 348.3 87.2C349.6 85.9 350.2 84.1 350.2 81.8C350.2 80.8 350 79.8 349.7 78.9C349.4 78 348.9 77.3 348.2 76.7C347.6 76.1 346.7 75.6 345.7 75.3C344.7 75 343.5 74.8 342.2 74.8H336.7V89.2H336.8Z" fill="#2D2D2D"/>
<path d="M400.4 68.3V75.1H382.4V85.9H396.4V92.5H382.4V103.5H400.4V110.3H373.6V68.3H400.4Z" fill="#2D2D2D"/>
<path d="M421.6 68.3C421.9 68.3 422.1 68.4 422.3 68.5C422.5 68.6 422.7 68.7 422.9 68.9C423.1 69.1 423.3 69.3 423.5 69.6L444.6 96.4C444.5 95.7 444.5 94.9 444.4 94.3C444.4 93.6 444.3 92.9 444.3 92.3V68.3H452V110.4H447.5C446.8 110.4 446.3 110.3 445.8 110.1C445.3 109.9 444.9 109.5 444.4 109L423.4 82.3C423.5 83 423.5 83.6 423.5 84.3C423.5 84.9 423.5 85.6 423.5 86.1V110.4H415.8V68.3H420.4C421 68.3 421.4 68.3 421.6 68.3Z" fill="#2D2D2D"/>
<path d="M501.8 85.7H503.5C504.9 85.7 506 85.3 506.6 84.4L517.2 70.2C517.7 69.5 518.3 69.1 518.9 68.8C519.5 68.5 520.2 68.4 521.1 68.4H528.6L515.2 85.7C514.3 86.8 513.4 87.6 512.5 88.1C513.2 88.4 513.8 88.7 514.3 89.2C514.8 89.6 515.4 90.2 515.9 90.9L529.6 110.5H521.9C521.4 110.5 521 110.5 520.6 110.4C520.2 110.3 519.9 110.2 519.7 110.1C519.4 110 519.2 109.8 519 109.6C518.8 109.4 518.6 109.2 518.4 108.9L507.6 93.8C507.2 93.3 506.8 92.9 506.3 92.7C505.8 92.5 505.1 92.4 504.2 92.4H501.8V110.6H493.1V68.3H501.8V85.7V85.7Z" fill="#2D2D2D"/>
<path d="M548.1 68.3C548.4 68.3 548.6 68.4 548.8 68.5C549 68.6 549.2 68.7 549.4 68.9C549.6 69.1 549.8 69.3 550 69.6L571.1 96.4C571 95.7 571 94.9 570.9 94.3C570.9 93.6 570.8 92.9 570.8 92.3V68.3H578.5V110.4H574C573.3 110.4 572.8 110.3 572.3 110.1C571.8 109.9 571.4 109.5 570.9 109L549.9 82.3C550 83 550 83.6 550 84.3C550 84.9 550 85.6 550 86.1V110.4H542.3V68.3H546.9C547.5 68.3 547.8 68.3 548.1 68.3Z" fill="#2D2D2D"/>
<path d="M637.2 89.3C637.2 92.4 636.7 95.2 635.6 97.9C634.6 100.5 633.1 102.8 631.2 104.7C629.3 106.6 627 108.1 624.4 109.2C621.8 110.3 618.8 110.8 615.6 110.8C612.4 110.8 609.4 110.3 606.8 109.2C604.2 108.1 601.9 106.6 600 104.7C598.1 102.8 596.6 100.5 595.6 97.9C594.6 95.3 594 92.4 594 89.3C594 86.2 594.5 83.4 595.6 80.8C596.6 78.2 598.1 75.9 600 74C601.9 72.1 604.2 70.6 606.8 69.5C609.4 68.4 612.4 67.9 615.6 67.9C618.8 67.9 621.8 68.4 624.4 69.5C627 70.6 629.3 72.1 631.2 74C633.1 75.9 634.5 78.2 635.6 80.8C636.7 83.4 637.2 86.3 637.2 89.3ZM628.3 89.3C628.3 87.1 628 85.1 627.4 83.4C626.8 81.7 626 80.2 624.9 78.9C623.8 77.7 622.5 76.7 620.9 76.1C619.3 75.5 617.6 75.1 615.6 75.1C613.6 75.1 611.9 75.4 610.3 76.1C608.7 76.7 607.4 77.7 606.3 78.9C605.2 80.1 604.4 81.6 603.8 83.4C603.2 85.2 602.9 87.1 602.9 89.3C602.9 91.5 603.2 93.5 603.8 95.3C604.4 97.1 605.2 98.5 606.3 99.8C607.4 101 608.7 102 610.3 102.6C611.9 103.2 613.6 103.6 615.6 103.6C617.6 103.6 619.3 103.3 620.9 102.6C622.5 102 623.8 101 624.9 99.8C626 98.6 626.8 97.1 627.4 95.3C628 93.5 628.3 91.5 628.3 89.3Z" fill="#2D2D2D"/>
<path d="M647.7 68.3H655C655.8 68.3 656.4 68.5 656.9 68.8C657.4 69.1 657.7 69.6 657.9 70.2L664.4 93.9C664.6 94.6 664.7 95.3 664.9 96C665.1 96.7 665.2 97.6 665.4 98.4C665.6 97.5 665.8 96.7 666 96C666.2 95.3 666.4 94.5 666.6 93.9L674.2 70.2C674.4 69.7 674.7 69.3 675.2 68.9C675.7 68.5 676.3 68.3 677.1 68.3H679.7C680.5 68.3 681.1 68.5 681.5 68.8C682 69.2 682.3 69.6 682.6 70.2L690.2 93.9C690.4 94.5 690.6 95.2 690.8 95.9C691 96.6 691.2 97.4 691.3 98.2C691.5 97.4 691.6 96.6 691.8 95.9C692 95.2 692.1 94.5 692.3 93.9L698.8 70.2C698.9 69.7 699.3 69.3 699.8 68.9C700.3 68.5 701 68.3 701.7 68.3H708.5L695.5 110.4H687.6L679 82.9C678.8 82.5 678.7 82.1 678.6 81.6C678.5 81.1 678.4 80.7 678.2 80.1C678.1 80.6 677.9 81.1 677.8 81.6C677.7 82.1 677.5 82.5 677.4 82.9L668.7 110.4H660.8L647.7 68.3Z" fill="#2D2D2D"/>
<path d="M731 103.3H747.3V110.4H722.3V68.3H731V103.3Z" fill="#2D2D2D"/>
<path d="M788.5 68.3V75.1H770.5V85.9H784.5V92.5H770.5V103.5H788.5V110.3H761.7V68.3H788.5Z" fill="#2D2D2D"/>
<path d="M841.9 89.3C841.9 92.4 841.4 95.2 840.3 97.8C839.3 100.4 837.8 102.6 835.9 104.5C834 106.4 831.7 107.8 829.1 108.8C826.5 109.8 823.5 110.4 820.3 110.4H804.1V68.3H820.3C823.5 68.3 826.5 68.8 829.1 69.9C831.7 70.9 834 72.4 835.9 74.3C837.8 76.2 839.2 78.4 840.3 81C841.4 83.4 841.9 86.3 841.9 89.3ZM833 89.3C833 87.1 832.7 85.1 832.1 83.4C831.5 81.6 830.7 80.2 829.6 78.9C828.5 77.6 827.2 76.7 825.6 76.1C824 75.4 822.3 75.1 820.3 75.1H812.9V103.5H820.3C822.3 103.5 824 103.2 825.6 102.5C827.2 101.9 828.5 100.9 829.6 99.7C830.7 98.5 831.5 97 832.1 95.2C832.7 93.5 833 91.5 833 89.3Z" fill="#2D2D2D"/>
<path d="M885.5 109.7C883.1 110.4 880.5 110.8 877.8 110.8C874.3 110.8 871.2 110.3 868.4 109.2C865.6 108.1 863.2 106.6 861.2 104.7C859.2 102.8 857.7 100.5 856.6 97.9C855.5 95.3 855 92.4 855 89.3C855 86.1 855.5 83.3 856.6 80.6C857.6 78 859.1 75.7 861 73.8C862.9 71.9 865.2 70.4 867.9 69.4C870.6 68.3 873.7 67.8 877 67.8C878.7 67.8 880.4 67.9 881.9 68.2C883.4 68.5 884.8 68.9 886.1 69.4C887.4 69.9 888.5 70.5 889.6 71.2C890.7 71.9 891.6 72.6 892.5 73.4L890 77.3C889.6 77.9 889.1 78.3 888.5 78.4C887.9 78.5 887.2 78.4 886.5 77.9C885.8 77.5 885.1 77.1 884.5 76.8C883.9 76.5 883.1 76.2 882.4 75.9C881.6 75.6 880.8 75.5 879.9 75.3C879 75.2 878 75.1 876.8 75.1C874.8 75.1 873.1 75.4 871.5 76.1C869.9 76.8 868.6 77.7 867.5 79C866.4 80.2 865.5 81.7 864.9 83.5C864.3 85.2 864 87.2 864 89.3C864 91.6 864.3 93.7 865 95.5C865.7 97.3 866.6 98.9 867.8 100.1C869 101.4 870.4 102.3 872.1 103C873.8 103.7 875.6 104 877.7 104C879.1 104 880.3 103.9 881.4 103.6C882.5 103.3 883.6 102.9 884.6 102.5V95.4H879.8C879.2 95.4 878.8 95.3 878.5 95C878.2 94.7 878 94.3 878 93.9V89.1H892.4V106.5C890.2 107.9 887.9 109 885.5 109.7Z" fill="#2D2D2D"/>
<path d="M935.4 68.3V75.1H917.4V85.9H931.4V92.5H917.4V103.5H935.4V110.3H908.6V68.3H935.4Z" fill="#2D2D2D"/>
<path d="M214.364 6.60072L175.641 58.4319L181.89 63.1002L220.613 11.269L214.364 6.60072Z" fill="#2D2D2D"/>
<path d="M177.015 23.7201L163.154 51.5609L170.136 55.0373L183.998 27.1966L177.015 23.7201Z" fill="#2D2D2D"/>
<path d="M163.253 -0.071196L149.591 46.9884L157.082 49.163L170.744 2.10344L163.253 -0.071196Z" fill="#2D2D2D"/>
<path d="M138.658 13.9948L135.455 44.9299L143.213 45.7333L146.417 14.7982L138.658 13.9948Z" fill="#2D2D2D"/>
<path d="M126.255 10.0556L118.478 10.6517L121.145 45.4505L128.923 44.8544L126.255 10.0556Z" fill="#2D2D2D"/>
<path d="M108.737 23.3955L101.191 25.3705L107.243 48.4913L114.789 46.5164L108.737 23.3955Z" fill="#2D2D2D"/>
<path d="M94.3552 36.2042L87.2837 39.4951L94.0341 54.0007L101.106 50.7098L94.3552 36.2042Z" fill="#2D2D2D"/>
<path d="M84.7781 52.1355L78.4062 56.6346L82.0401 61.7811L88.4119 57.282L84.7781 52.1355Z" fill="#2D2D2D"/>
<path d="M58.7659 47.9607L53.3013 53.5267L71.6408 71.5322L77.1055 65.9661L58.7659 47.9607Z" fill="#2D2D2D"/>
<path d="M63.1003 83L34.8003 63.6L39.2003 57.1L67.5003 76.5L63.1003 83Z" fill="#2D2D2D"/>
<path d="M42.1127 80.7131L38.9521 87.8439L56.779 95.7453L59.9396 88.6145L42.1127 80.7131Z" fill="#2D2D2D"/>
<path d="M1.79442 89.1869L-0.0424805 96.7677L52.8289 109.579L54.6658 101.998L1.79442 89.1869Z" fill="#2D2D2D"/>
<path d="M12.4242 113.61L11.9707 121.396L51.4035 123.693L51.857 115.906L12.4242 113.61Z" fill="#2D2D2D"/>
<path d="M51.6882 130.2L13.4692 134.855L14.4123 142.598L52.6312 137.943L51.6882 130.2Z" fill="#2D2D2D"/>
<path d="M54.0432 144.324L45.4473 146.99L47.7584 154.44L56.3543 151.773L54.0432 144.324Z" fill="#2D2D2D"/>
<path d="M58.7444 157.751L30.0088 172.72L33.6124 179.638L62.348 164.669L58.7444 157.751Z" fill="#2D2D2D"/>
<path d="M65.8645 170.204L38.29 191.598L43.0714 197.76L70.6459 176.367L65.8645 170.204Z" fill="#2D2D2D"/>
<path d="M75.0718 181.107L52.2998 206.491L58.1061 211.7L80.8781 186.316L75.0718 181.107Z" fill="#2D2D2D"/>
<path d="M86.0161 190.17L77.7861 203.54L84.4286 207.629L92.6586 194.259L86.0161 190.17Z" fill="#2D2D2D"/>
<path d="M98.4508 197.129L87.3154 225.629L94.5804 228.468L105.716 199.967L98.4508 197.129Z" fill="#2D2D2D"/>
<path d="M112.037 201.822L106.653 229.402L114.309 230.897L119.693 203.317L112.037 201.822Z" fill="#2D2D2D"/>
<path d="M126.078 204.049L125.816 223.547L133.615 223.651L133.877 204.153L126.078 204.049Z" fill="#2D2D2D"/>
<path d="M148.015 202.324L140.322 203.615L146.578 240.894L154.271 239.603L148.015 202.324Z" fill="#2D2D2D"/>
<path d="M161.706 198.037L154.368 200.68L162.095 222.13L169.433 219.487L161.706 198.037Z" fill="#2D2D2D"/>
<path d="M167.6 195.3L195.9 243.6L202.7 239.7L174.3 191.4L167.6 195.3Z" fill="#2D2D2D"/>
<path d="M184.1 192.3L179.8 187.8L185.4 182.4L189.8 186.9L184.1 192.3Z" fill="#2D2D2D"/>
<path d="M195.088 172.021L190.145 178.055L209.637 194.026L214.58 187.993L195.088 172.021Z" fill="#2D2D2D"/>
<path d="M202.518 159.749L198.731 166.568L218.663 177.638L222.45 170.819L202.518 159.749Z" fill="#2D2D2D"/>
<path d="M207.672 146.467L205.165 153.853L214.728 157.1L217.236 149.714L207.672 146.467Z" fill="#2D2D2D"/>
<path d="M210.349 132.445L209.2 140.159L239.268 144.637L240.417 136.922L210.349 132.445Z" fill="#2D2D2D"/>
<path d="M229.771 117.498L210.481 118.108L210.728 125.904L230.018 125.294L229.771 117.498Z" fill="#2D2D2D"/>
<path d="M231.905 98.9352L208.046 104.045L209.68 111.671L233.538 106.562L231.905 98.9352Z" fill="#2D2D2D"/>
<path d="M218.686 84.2743L203.245 90.6354L206.216 97.8473L221.657 91.4862L218.686 84.2743Z" fill="#2D2D2D"/>
<path d="M236.851 52.1052L196.019 78.2806L200.228 84.8475L241.06 58.672L236.851 52.1052Z" fill="#2D2D2D"/>
<path d="M192.849 61.7903L186.702 67.515L192.017 73.223L198.164 67.4984L192.849 61.7903Z" fill="#2D2D2D"/>
<path d="M159.9 89L156.9 86.5L159 84.1L162 86.6L160.5 88.3L159.9 89Z" fill="#2D2D2D"/>
<path d="M151.284 79.8196L145.982 90.4737L149.474 92.2111L154.776 81.5571L151.284 79.8196Z" fill="#2D2D2D"/>
<path d="M142.897 76.9023L140.976 83.5298L144.722 84.6155L146.643 77.9881L142.897 76.9023Z" fill="#2D2D2D"/>
<path d="M134.199 75.5781L132.99 87.3156L136.869 87.7154L138.079 75.9779L134.199 75.5781Z" fill="#2D2D2D"/>
<path d="M129.283 75.5725L125.395 75.8705L126.227 86.7389L130.116 86.4409L129.283 75.5725Z" fill="#2D2D2D"/>
<path d="M120.587 76.6347L116.814 77.6226L120.31 90.9727L124.082 89.9848L120.587 76.6347Z" fill="#2D2D2D"/>
<path d="M112.237 79.3149L108.702 80.9603L115.494 95.5566L119.03 93.9112L112.237 79.3149Z" fill="#2D2D2D"/>
<path d="M113.2 102.7L101.3 85.6L104.4 83.4L116.4 100.4L113.2 102.7Z" fill="#2D2D2D"/>
<path d="M97.5281 88.8145L94.7954 91.5971L104.356 100.986L107.089 98.2038L97.5281 88.8145Z" fill="#2D2D2D"/>
<path d="M91.6996 95.3852L89.5078 98.6109L99.433 105.355L101.625 102.129L91.6996 95.3852Z" fill="#2D2D2D"/>
<path d="M87.0954 102.911L85.5151 106.476L99.5938 112.717L101.174 109.151L87.0954 102.911Z" fill="#2D2D2D"/>
<path d="M83.9536 111.135L83.0352 114.926L88.3806 116.221L89.2991 112.43L83.9536 111.135Z" fill="#2D2D2D"/>
<path d="M82.2975 119.755L82.0713 123.649L91.8546 124.217L92.0808 120.324L82.2975 119.755Z" fill="#2D2D2D"/>
<path d="M92.2245 127.295L82.1992 128.519L82.6715 132.39L92.6968 131.167L92.2245 127.295Z" fill="#2D2D2D"/>
<path d="M84.9002 140.9L83.7002 137.2L102.7 131.4L103.8 135.1L84.9002 140.9Z" fill="#2D2D2D"/>
<path d="M97.1149 140.017L86.7417 145.429L88.5458 148.887L98.9191 143.475L97.1149 140.017Z" fill="#2D2D2D"/>
<path d="M99.9154 146.217L91.1431 153.018L93.5326 156.1L102.305 149.299L99.9154 146.217Z" fill="#2D2D2D"/>
<path d="M104.615 151.123L96.9341 159.682L99.8368 162.287L107.518 153.727L104.615 151.123Z" fill="#2D2D2D"/>
<path d="M112.182 151.531L103.746 165.243L107.067 167.287L115.504 153.574L112.182 151.531Z" fill="#2D2D2D"/>
<path d="M115.819 158.246L111.421 169.518L115.054 170.936L119.452 159.663L115.819 158.246Z" fill="#2D2D2D"/>
<path d="M122.274 159.298L119.742 172.253L123.57 173.001L126.101 160.046L122.274 159.298Z" fill="#2D2D2D"/>
<path d="M128.676 158.192L128.473 173.59L132.372 173.642L132.576 158.243L128.676 158.192Z" fill="#2D2D2D"/>
<path d="M139.443 162.64L135.597 163.285L137.268 173.246L141.114 172.601L139.443 162.64Z" fill="#2D2D2D"/>
<path d="M144.466 156.091L140.798 157.415L145.821 171.336L149.489 170.012L144.466 156.091Z" fill="#2D2D2D"/>
<path d="M155.497 162.782L152.122 164.736L153.976 167.938L157.351 165.984L155.497 162.782Z" fill="#2D2D2D"/>
<path d="M161.4 163.2L147.4 146.8L150.4 144.3L164.3 160.6L161.4 163.2Z" fill="#2D2D2D"/>
<path d="M159.922 145.607L157.45 148.624L167.815 157.118L170.287 154.101L159.922 145.607Z" fill="#2D2D2D"/>
<path d="M162.467 139.762L160.573 143.171L172.987 150.067L174.881 146.657L162.467 139.762Z" fill="#2D2D2D"/>
<path d="M176.9 142.2L159.5 136.2L160.7 132.5L178.1 138.5L176.9 142.2Z" fill="#2D2D2D"/>
<path d="M168.105 128.156L167.529 132.013L179.298 133.771L179.874 129.914L168.105 128.156Z" fill="#2D2D2D"/>
<path d="M180.035 121.06L164.842 121.544L164.966 125.442L180.159 124.958L180.035 121.06Z" fill="#2D2D2D"/>
<path d="M178.646 112.388L165.152 115.282L165.97 119.095L179.464 116.201L178.646 112.388Z" fill="#2D2D2D"/>
<path d="M175.68 104.145L161.068 110.157L162.552 113.764L177.164 107.752L175.68 104.145Z" fill="#2D2D2D"/>
<path d="M171.298 96.4838L165.488 100.206L167.592 103.49L173.402 99.7676L171.298 96.4838Z" fill="#2D2D2D"/>
<path d="M165.652 89.7066L152.037 102.379L154.694 105.234L168.309 92.5614L165.652 89.7066Z" fill="#2D2D2D"/>
</g>
<defs>
<clipPath id="clip0">
<rect width="935.4" height="243.6" fill="white"/>
</clipPath>
</defs>
</svg>
