<svg xmlns="http://www.w3.org/2000/svg" viewBox="0 0 935.45 243.64"><defs><style>.a{fill:#2d2d2d;}</style></defs><title>landscape-grey-rgb</title><path class="a" d="M312.56,89.31A23.17,23.17,0,0,1,311,97.87a19.77,19.77,0,0,1-11.18,11.32,24.53,24.53,0,0,1-17.63,0,20.4,20.4,0,0,1-6.82-4.51A19.93,19.93,0,0,1,271,97.87a24.33,24.33,0,0,1,0-17.1,20,20,0,0,1,4.39-6.8,20.4,20.4,0,0,1,6.82-4.51,24.53,24.53,0,0,1,17.63,0A19.85,19.85,0,0,1,311,80.8,23,23,0,0,1,312.56,89.31Zm-8.9,0a18.8,18.8,0,0,0-.87-5.93,12.56,12.56,0,0,0-2.51-4.47,10.8,10.8,0,0,0-4-2.81,14.94,14.94,0,0,0-10.6,0,10.78,10.78,0,0,0-4,2.81,12.56,12.56,0,0,0-2.51,4.47,20.74,20.74,0,0,0,0,11.89,12.43,12.43,0,0,0,2.51,4.45,10.84,10.84,0,0,0,4,2.8,14.94,14.94,0,0,0,10.6,0,10.87,10.87,0,0,0,4-2.8,12.43,12.43,0,0,0,2.51-4.45A18.89,18.89,0,0,0,303.66,89.31Z"/><path class="a" d="M336.8,95.89v14.47h-8.7V68.29h14.21a24.47,24.47,0,0,1,7.47,1A14.23,14.23,0,0,1,355,72.13a11.11,11.11,0,0,1,3,4.31,14.82,14.82,0,0,1,1,5.42,15.4,15.4,0,0,1-1,5.68A11.62,11.62,0,0,1,354.84,92a14.3,14.3,0,0,1-5.19,2.88,23.54,23.54,0,0,1-7.34,1H336.8Zm0-6.67h5.51q4.09,0,6-2a7.45,7.45,0,0,0,1.9-5.39,8.15,8.15,0,0,0-.48-2.86,5.69,5.69,0,0,0-1.45-2.2,6.51,6.51,0,0,0-2.45-1.41,11.13,11.13,0,0,0-3.51-.49H336.8V89.22Z"/><path class="a" d="M400.43,68.29V75.1h-18V85.92h14V92.5h-14v11h18v6.82h-26.8V68.29h26.8Z"/><path class="a" d="M421.61,68.33a2.07,2.07,0,0,1,.71.2,2.75,2.75,0,0,1,.61.42,5.86,5.86,0,0,1,.64.7l21.11,26.83q-0.12-1.1-.17-2.15t-0.06-2V68.29h7.69v42.08h-4.5a3.94,3.94,0,0,1-1.71-.33,4.13,4.13,0,0,1-1.36-1.14l-21-26.65q0.09,1,.13,2t0,1.81v24.33h-7.68V68.29h4.58A8.61,8.61,0,0,1,421.61,68.33Z"/><path class="a" d="M501.75,85.66h1.71a3.55,3.55,0,0,0,3.1-1.33l10.64-14.24a4.19,4.19,0,0,1,1.65-1.41,5.52,5.52,0,0,1,2.2-.39h7.54l-13.4,17.25a8.51,8.51,0,0,1-2.7,2.41A7.1,7.1,0,0,1,514.34,89a8.37,8.37,0,0,1,1.57,1.73l13.75,19.63h-7.74a6.13,6.13,0,0,1-1.29-.12,4,4,0,0,1-.94-0.32,2.48,2.48,0,0,1-.7-0.51,4.71,4.71,0,0,1-.55-0.71L507.61,93.57a3.17,3.17,0,0,0-1.3-1.12,5.38,5.38,0,0,0-2.12-.33h-2.44v18.24h-8.7V68.29h8.7V85.66Z"/><path class="a" d="M548.05,68.33a2.07,2.07,0,0,1,.71.2,2.75,2.75,0,0,1,.61.42,5.86,5.86,0,0,1,.64.7l21.11,26.83q-0.12-1.1-.17-2.15t-0.06-2V68.29h7.69v42.08h-4.5a3.94,3.94,0,0,1-1.71-.33,4.13,4.13,0,0,1-1.36-1.14L550,82.23q0.09,1,.13,2t0,1.81v24.33h-7.68V68.29h4.58A8.61,8.61,0,0,1,548.05,68.33Z"/><path class="a" d="M637.21,89.31a23.17,23.17,0,0,1-1.55,8.55,19.77,19.77,0,0,1-11.18,11.32,24.53,24.53,0,0,1-17.63,0,20.4,20.4,0,0,1-6.82-4.51,19.93,19.93,0,0,1-4.39-6.82,24.33,24.33,0,0,1,0-17.1A20,20,0,0,1,600,74a20.4,20.4,0,0,1,6.82-4.51,24.53,24.53,0,0,1,17.63,0A19.85,19.85,0,0,1,635.66,80.8,23,23,0,0,1,637.21,89.31Zm-8.9,0a18.8,18.8,0,0,0-.87-5.93,12.56,12.56,0,0,0-2.51-4.47,10.8,10.8,0,0,0-4-2.81,14.94,14.94,0,0,0-10.6,0,10.78,10.78,0,0,0-4,2.81,12.56,12.56,0,0,0-2.51,4.47,20.74,20.74,0,0,0,0,11.89,12.43,12.43,0,0,0,2.51,4.45,10.84,10.84,0,0,0,4,2.8,14.94,14.94,0,0,0,10.6,0,10.87,10.87,0,0,0,4-2.8,12.43,12.43,0,0,0,2.51-4.45A18.89,18.89,0,0,0,628.31,89.31Z"/><path class="a" d="M647.68,68.29H655a3.3,3.3,0,0,1,1.9.52,2.38,2.38,0,0,1,1,1.39l6.52,23.72q0.23,1,.48,2.15t0.48,2.41q0.26-1.28.55-2.42t0.64-2.13l7.6-23.72a2.76,2.76,0,0,1,1-1.32,3,3,0,0,1,1.87-.59h2.55a3,3,0,0,1,1.84.54,3.26,3.26,0,0,1,1.06,1.38l7.57,23.72q0.32,0.93.62,2t0.54,2.32q0.23-1.22.46-2.32t0.46-2l6.52-23.72a2.47,2.47,0,0,1,1-1.33,3.08,3.08,0,0,1,1.88-.58h6.84l-13,42.08h-7.86l-8.61-27.52a11.49,11.49,0,0,1-.42-1.28q-0.19-.7-0.36-1.45l-0.39,1.45q-0.19.7-.39,1.28l-8.7,27.52H660.7Z"/><path class="a" d="M731,103.29h16.27v7.08h-25V68.29H731v35Z"/><path class="a" d="M788.5,68.29V75.1h-18V85.92h14V92.5h-14v11h18v6.82h-26.8V68.29h26.8Z"/><path class="a" d="M841.89,89.31a22.63,22.63,0,0,1-1.55,8.48,19.29,19.29,0,0,1-4.38,6.66,20,20,0,0,1-6.8,4.35,23.86,23.86,0,0,1-8.82,1.57H804.16V68.29h16.18a23.86,23.86,0,0,1,8.82,1.57,19.92,19.92,0,0,1,6.8,4.36,19.47,19.47,0,0,1,4.38,6.66A22.43,22.43,0,0,1,841.89,89.31Zm-8.93,0a18.94,18.94,0,0,0-.87-5.95,12.53,12.53,0,0,0-2.49-4.47,10.9,10.9,0,0,0-4-2.81,13.51,13.51,0,0,0-5.29-1h-7.42v28.45h7.42a13.67,13.67,0,0,0,5.29-1,10.66,10.66,0,0,0,4-2.81,12.67,12.67,0,0,0,2.49-4.48A19,19,0,0,0,833,89.31Z"/><path class="a" d="M885.52,109.74a26.77,26.77,0,0,1-7.7,1.09,26.1,26.1,0,0,1-9.4-1.61,21.14,21.14,0,0,1-7.19-4.48,19.77,19.77,0,0,1-4.61-6.82A22.39,22.39,0,0,1,855,89.31a23.49,23.49,0,0,1,1.55-8.67A19.42,19.42,0,0,1,861,73.85a20.21,20.21,0,0,1,6.95-4.44A24.86,24.86,0,0,1,877,67.82a26.68,26.68,0,0,1,4.87.42,23.56,23.56,0,0,1,4.18,1.16,19.73,19.73,0,0,1,6.41,4L890,77.28a2.34,2.34,0,0,1-1.51,1.13,2.76,2.76,0,0,1-2-.46q-1-.64-2-1.15a15.78,15.78,0,0,0-2.13-.88,15,15,0,0,0-2.46-.58,20.72,20.72,0,0,0-3.07-.2,13.38,13.38,0,0,0-5.31,1,11.35,11.35,0,0,0-4,2.87,12.83,12.83,0,0,0-2.57,4.47,17.81,17.81,0,0,0-.9,5.83,18.3,18.3,0,0,0,1,6.22,12.94,12.94,0,0,0,2.78,4.63A11.86,11.86,0,0,0,872,103a16.45,16.45,0,0,0,9.31.57,18.65,18.65,0,0,0,3.2-1.15V95.37h-4.76a1.85,1.85,0,0,1-1.32-.45,1.5,1.5,0,0,1-.48-1.15V88.93h14.44V106.3A22.55,22.55,0,0,1,885.52,109.74Z"/><path class="a" d="M935.45,68.29V75.1h-18V85.92h14V92.5h-14v11h18v6.82h-26.8V68.29h26.8Z"/><path class="a" d="M278.6,178.57h-5.33V139.17h5.33v39.41Z"/><path class="a" d="M301.66,139.34a2.75,2.75,0,0,1,.78.73l22.82,29.7q-0.08-.71-0.11-1.39t0-1.31V139.17h4.67v39.41h-2.7a2.29,2.29,0,0,1-1.06-.22,2.67,2.67,0,0,1-.84-0.74l-22.8-29.67q0.06,0.69.08,1.35t0,1.21v28.08h-4.67V139.17h2.75A2.39,2.39,0,0,1,301.66,139.34Z"/><path class="a" d="M375,139.17v4.48H362.23v34.92H356.9V143.65H344.11v-4.48H375Z"/><path class="a" d="M413.55,139.17v4.34H394.63V156.6h15.32v4.18H394.63v13.45h18.92v4.34H389.26V139.17h24.28Z"/><path class="a" d="M435.77,162.13v16.45h-5.31V139.17H441.6a24.34,24.34,0,0,1,6.46.76,12.35,12.35,0,0,1,4.5,2.19,8.76,8.76,0,0,1,2.63,3.45,11.53,11.53,0,0,1,.85,4.52,11.33,11.33,0,0,1-.66,3.91,10.33,10.33,0,0,1-1.91,3.26,11.44,11.44,0,0,1-3.05,2.46,15.08,15.08,0,0,1-4.08,1.54,5.64,5.64,0,0,1,1.76,1.68l11.49,15.65h-4.73a2.33,2.33,0,0,1-2.15-1.13l-10.23-14.08a3,3,0,0,0-1-.95,3.67,3.67,0,0,0-1.65-.29h-4Zm0-3.88h5.58a13.59,13.59,0,0,0,4.11-.56,8.36,8.36,0,0,0,3-1.59,6.62,6.62,0,0,0,1.8-2.46,8,8,0,0,0,.61-3.16,6.28,6.28,0,0,0-2.32-5.31q-2.32-1.79-6.92-1.79h-5.83v14.88Z"/><path class="a" d="M477.83,139.34a2.75,2.75,0,0,1,.78.73l22.82,29.7q-0.08-.71-0.11-1.39t0-1.31V139.17H506v39.41h-2.7a2.29,2.29,0,0,1-1.06-.22,2.67,2.67,0,0,1-.84-0.74l-22.8-29.67q0.06,0.69.08,1.35t0,1.21v28.08H474V139.17h2.75A2.39,2.39,0,0,1,477.83,139.34Z"/><path class="a" d="M556.71,178.57h-4.12a1.77,1.77,0,0,1-1.15-.36,2.19,2.19,0,0,1-.66-0.91l-3.69-9.52H529.4l-3.69,9.52a2.15,2.15,0,0,1-.66.88,1.75,1.75,0,0,1-1.15.38h-4.12l15.76-39.41H541Zm-25.82-14.63H545.6l-6.19-16a29.93,29.93,0,0,1-1.18-3.71q-0.3,1.13-.59,2.08t-0.56,1.66Z"/><path class="a" d="M593.59,139.17v4.48H580.86v34.92h-5.33V143.65H562.73v-4.48h30.86Z"/><path class="a" d="M614.21,178.57h-5.33V139.17h5.33v39.41Z"/><path class="a" d="M670.06,158.88a22.76,22.76,0,0,1-1.4,8.13,18.62,18.62,0,0,1-4,6.37,17.69,17.69,0,0,1-6.15,4.14,22.1,22.1,0,0,1-15.85,0,17.72,17.72,0,0,1-6.13-4.14,18.6,18.6,0,0,1-4-6.37,24.25,24.25,0,0,1,0-16.25,18.75,18.75,0,0,1,4-6.38,17.8,17.8,0,0,1,6.13-4.17,21.89,21.89,0,0,1,15.85,0,17.77,17.77,0,0,1,6.15,4.17,18.76,18.76,0,0,1,4,6.38A22.76,22.76,0,0,1,670.06,158.88Zm-5.47,0a20,20,0,0,0-1-6.52,13.78,13.78,0,0,0-2.8-4.88,12.17,12.17,0,0,0-4.4-3.07,16,16,0,0,0-11.52,0,12.29,12.29,0,0,0-4.41,3.07,13.66,13.66,0,0,0-2.82,4.88,21.9,21.9,0,0,0,0,13,13.69,13.69,0,0,0,2.82,4.87,12.14,12.14,0,0,0,4.41,3.05,16.19,16.19,0,0,0,11.52,0,12,12,0,0,0,4.4-3.05,13.81,13.81,0,0,0,2.8-4.87A19.89,19.89,0,0,0,664.59,158.88Z"/><path class="a" d="M689.85,139.34a2.75,2.75,0,0,1,.78.73l22.82,29.7q-0.08-.71-0.11-1.39t0-1.31V139.17H718v39.41h-2.7a2.29,2.29,0,0,1-1.06-.22,2.67,2.67,0,0,1-.84-0.74l-22.8-29.67q0.06,0.69.08,1.35t0,1.21v28.08H686V139.17h2.75A2.39,2.39,0,0,1,689.85,139.34Z"/><path class="a" d="M768.73,178.57h-4.12a1.77,1.77,0,0,1-1.15-.36,2.19,2.19,0,0,1-.66-0.91l-3.69-9.52H741.43l-3.69,9.52a2.15,2.15,0,0,1-.66.88,1.75,1.75,0,0,1-1.15.38H731.8l15.76-39.41H753Zm-25.82-14.63h14.71l-6.19-16a29.93,29.93,0,0,1-1.18-3.71q-0.3,1.13-.59,2.08t-0.56,1.66Z"/><path class="a" d="M787.74,174.09h17v4.48H782.4V139.17h5.33v34.92Z"/><rect class="a" x="165.76" y="30.99" width="64.66" height="7.81" transform="translate(51.58 172.7) rotate(-53.24)"/><rect class="a" x="157.97" y="35.47" width="31.15" height="7.81" transform="translate(60.95 177.18) rotate(-63.53)"/><rect class="a" x="135.66" y="20.7" width="48.97" height="7.81" transform="matrix(0.28, -0.96, 0.96, 0.28, 91.88, 171.54)"/><rect class="a" x="125.36" y="25.98" width="31.14" height="7.81" transform="translate(96.68 166.99) rotate(-84.09)"/><rect class="a" x="119.82" y="10.34" width="7.81" height="34.89" transform="translate(-1.76 9.54) rotate(-4.38)"/><rect class="a" x="104.07" y="24.04" width="7.81" height="23.88" transform="translate(-5.59 28.51) rotate(-14.67)"/><rect class="a" x="90.29" y="37.1" width="7.81" height="16.01" transform="translate(-10.23 43.96) rotate(-24.96)"/><rect class="a" x="79.51" y="53.8" width="7.81" height="6.28" transform="translate(-17.57 58.54) rotate(-35.22)"/><rect class="a" x="61.29" y="46.91" width="7.81" height="25.67" transform="translate(-23.11 64.41) rotate(-45.52)"/><polygon class="a" points="63.12 83 34.77 63.56 39.16 57.1 67.51 76.54 63.12 83"/><rect class="a" x="45.55" y="78.52" width="7.81" height="19.52" transform="translate(-51.29 97.72) rotate(-66.1)"/><rect class="a" x="23.45" y="72.14" width="7.81" height="54.4" transform="translate(-75.63 102.53) rotate(-76.38)"/><rect class="a" x="28.05" y="98.94" width="7.81" height="39.51" transform="translate(-88.4 143.7) rotate(-86.67)"/><rect class="a" x="13.75" y="132.53" width="38.51" height="7.81" transform="translate(-16.25 4.99) rotate(-6.94)"/><rect class="a" x="46.35" y="145.47" width="8.95" height="7.81" transform="translate(-41.98 21.77) rotate(-17.24)"/><rect class="a" x="29.96" y="164.82" width="32.4" height="7.81" transform="translate(-72.74 40.42) rotate(-27.52)"/><rect class="a" x="36.96" y="180.05" width="34.93" height="7.81" transform="translate(-101.35 71.98) rotate(-37.81)"/><rect class="a" x="49.54" y="192.46" width="34.05" height="7.81" transform="translate(-124.05 114.79) rotate(-48.11)"/><rect class="a" x="77.38" y="195.02" width="15.72" height="7.81" transform="translate(-128.85 167.24) rotate(-58.38)"/><rect class="a" x="81.26" y="208.95" width="30.6" height="7.81" transform="translate(-136.84 225.33) rotate(-68.66)"/><rect class="a" x="99.09" y="212.46" width="28.08" height="7.81" transform="translate(-120.9 285.95) rotate(-78.96)"/><rect class="a" x="120.11" y="209.92" width="19.53" height="7.81" transform="translate(-85.68 340.82) rotate(-89.23)"/><rect class="a" x="143.45" y="202.72" width="7.81" height="37.77" transform="translate(-34.65 27.45) rotate(-9.53)"/><rect class="a" x="157.99" y="198.7" width="7.81" height="22.82" transform="translate(-61.62 67.29) rotate(-19.81)"/><polygon class="a" points="167.58 195.32 195.91 243.64 202.67 239.72 174.34 191.4 167.58 195.32"/><polygon class="a" points="184.11 192.27 179.79 187.84 185.44 182.44 189.75 186.87 184.11 192.27"/><rect class="a" x="198.44" y="170.36" width="7.81" height="25.18" transform="translate(-67.41 223.52) rotate(-50.67)"/><rect class="a" x="206.67" y="157.32" width="7.81" height="22.75" transform="translate(-39.13 270.9) rotate(-60.96)"/><rect class="a" x="207.32" y="146.69" width="7.81" height="10.15" transform="translate(-0.39 302.98) rotate(-71.25)"/><rect class="a" x="220.93" y="123.3" width="7.81" height="30.43" transform="translate(54.7 340.49) rotate(-81.53)"/><rect class="a" x="210.62" y="117.82" width="19.33" height="7.81" transform="matrix(1, -0.03, 0.03, 1, -3.74, 7.03)"/><rect class="a" x="208.63" y="101.41" width="24.43" height="7.81" transform="translate(-17.16 48.58) rotate(-12.09)"/><rect class="a" x="204.05" y="87.17" width="16.66" height="7.81" transform="translate(-18.68 87.75) rotate(-22.39)"/><rect class="a" x="194.26" y="64.61" width="48.45" height="7.81" transform="translate(-2.43 128.76) rotate(-32.66)"/><rect class="a" x="188.23" y="63.55" width="8.42" height="7.81" transform="translate(5.63 149.23) rotate(-42.96)"/><polygon class="a" points="159.91 88.99 156.91 86.48 158.96 84.05 161.96 86.56 160.51 88.29 159.91 88.99"/><rect class="a" x="144.39" y="84.06" width="11.88" height="3.9" transform="translate(6.36 182.29) rotate(-63.55)"/><rect class="a" x="140.41" y="78.83" width="6.86" height="3.9" transform="translate(26.2 196.45) rotate(-73.83)"/><rect class="a" x="129.66" y="79.73" width="11.81" height="3.91" transform="translate(40.42 208.16) rotate(-84.12)"/><rect class="a" x="125.85" y="75.67" width="3.91" height="10.9" transform="translate(-5.82 10) rotate(-4.38)"/><rect class="a" x="118.52" y="76.92" width="3.91" height="13.81" transform="translate(-17.3 33.25) rotate(-14.67)"/><rect class="a" x="111.89" y="79.37" width="3.91" height="16.07" transform="translate(-26.25 56.19) rotate(-24.95)"/><polygon class="a" points="113.16 102.67 101.25 85.65 104.44 83.39 116.35 100.42 113.16 102.67"/><rect class="a" x="98.99" y="88.2" width="3.91" height="13.43" transform="translate(-37.5 100.43) rotate(-45.52)"/><rect class="a" x="93.58" y="94.38" width="3.9" height="11.96" transform="translate(-41.17 122.97) rotate(-55.81)"/><rect class="a" x="91.41" y="100.1" width="3.91" height="15.42" transform="translate(-43.03 149.47) rotate(-66.09)"/><rect class="a" x="84.22" y="110.88" width="3.91" height="5.54" transform="translate(-44.58 170.64) rotate(-76.38)"/><rect class="a" x="85.1" y="117.1" width="3.9" height="9.76" transform="translate(-39.76 201.81) rotate(-86.68)"/><rect class="a" x="82.42" y="127.91" width="10.07" height="3.91" transform="translate(-15.08 11.54) rotate(-6.95)"/><polygon class="a" points="84.88 140.93 83.72 137.21 102.66 131.4 103.81 135.13 84.88 140.93"/><rect class="a" x="86.98" y="142.54" width="11.7" height="3.91" transform="translate(-56.31 59.34) rotate(-27.56)"/><rect class="a" x="91.22" y="149.24" width="11.08" height="3.91" transform="translate(-72.35 90.98) rotate(-37.78)"/><rect class="a" x="96.46" y="154.81" width="11.45" height="3.9" transform="translate(-82.74 128.12) rotate(-48.09)"/><rect class="a" x="101.58" y="157.5" width="16.05" height="3.91" transform="translate(-83.64 169.25) rotate(-58.4)"/><rect class="a" x="109.42" y="162.63" width="12.09" height="3.91" transform="translate(-79.82 212.33) rotate(-68.69)"/><rect class="a" x="116.37" y="164.24" width="13.19" height="3.91" transform="matrix(0.19, -0.98, 0.98, 0.19, -63.73, 254.99)"/><rect class="a" x="122.84" y="163.92" width="15.4" height="3.91" transform="translate(-37.03 294.21) rotate(-89.24)"/><rect class="a" x="136.42" y="162.88" width="3.9" height="10.09" transform="translate(-25.86 25.19) rotate(-9.52)"/><rect class="a" x="143.24" y="156.28" width="3.91" height="14.84" transform="translate(-46.94 59) rotate(-19.84)"/><rect class="a" x="152.8" y="163.53" width="3.91" height="3.69" transform="translate(-62.04 99.81) rotate(-30.07)"/><polygon class="a" points="161.37 163.17 147.41 146.82 150.39 144.29 164.34 160.64 161.37 163.17"/><rect class="a" x="161.86" y="144.65" width="3.9" height="13.45" transform="translate(-57.1 182.13) rotate(-50.67)"/><rect class="a" x="165.81" y="137.85" width="3.91" height="14.17" transform="translate(-40.4 221.2) rotate(-60.95)"/><polygon class="a" points="176.89 142.19 159.45 136.19 160.71 132.49 178.15 138.49 176.89 142.19"/><rect class="a" x="171.73" y="124.95" width="3.91" height="11.93" transform="translate(18.54 283.36) rotate(-81.5)"/><rect class="a" x="164.92" y="121.32" width="15.18" height="3.9" transform="translate(-3.84 5.56) rotate(-1.82)"/><rect class="a" x="165.37" y="113.8" width="13.83" height="3.91" transform="translate(-20.44 38.69) rotate(-12.1)"/><rect class="a" x="161.22" y="106.97" width="15.82" height="3.9" transform="translate(-28.72 72.54) rotate(-22.36)"/><rect class="a" x="166.05" y="98.02" width="6.88" height="3.91" transform="translate(-27.16 107.25) rotate(-32.65)"/><rect class="a" x="150.92" y="95.54" width="18.56" height="3.91" transform="translate(-23.49 135.28) rotate(-42.95)"/></svg>